<svg width="1028" height="194" viewBox="0 0 1028 194" fill="none" xmlns="http://www.w3.org/2000/svg">
<path d="M138.61 189.135L156.88 84.8446L117.49 146.415L83.26 146.605L65.49 84.6446L46.89 189.115L0 189.125L32.98 1.87463L81.93 1.82462L109.83 91.3446L169.54 1.92462L218.76 1.91461L185.78 189.105L138.61 189.135Z" fill="white"/>
<path d="M557.61 68.3546L546.74 129.025C543.18 148.875 531.74 165.255 515.62 176.765C503.22 184.365 489.83 188.975 474.89 188.995L394 189.095L427.01 1.84464L502.87 1.86462C513.35 1.86462 523.09 3.89462 532.57 7.45462C557.58 18.9546 562.24 42.4246 557.6 68.3446L557.61 68.3546ZM501.15 121.685L509.38 74.5846C510.69 67.1046 510.23 59.0846 506.44 52.5246C499.06 39.7546 480.16 42.9546 466.67 42.5946L448.26 148.495L475.97 148.365C491.03 148.295 498.68 135.865 501.15 121.685Z" fill="white"/>
<path d="M324.45 187.905C301.95 194.565 278.04 194.885 256.37 188.085C228.88 179.455 223.51 152.235 227.88 127.085L237.65 70.9146C239.7 59.1446 242.86 48.2046 248.61 37.7946C257.94 20.8946 273.08 8.93462 291.92 4.04462C319.53 -3.12538 368.53 -3.85536 381.69 28.2846C386.19 39.2746 387.15 51.3746 385.08 63.2346L373.78 127.925C372 138.095 368.29 147.495 363.37 156.435C354.99 171.685 341.85 182.765 324.46 187.915L324.45 187.905ZM317 145.665C322.97 140.575 325.84 132.635 327.14 125.345L337.03 70.1246C338.92 59.5646 337.84 45.0246 325.32 41.7346C306.26 36.7346 288.99 47.1846 285.45 66.6146L276.36 116.515C274.44 127.045 271.4 145.745 284.03 150.225C294.64 153.985 307.79 153.525 317 145.665Z" fill="white"/>
<path d="M979.23 148.315L935.92 148.455L923.19 189.205L873.53 188.865L940.35 1.77463L1026.19 1.86462L1027.21 189.135H977.72L979.23 148.325V148.315ZM980.59 113.335L983.39 47.4046L967.17 47.5346L946.64 113.445L980.6 113.325L980.59 113.335Z" fill="white"/>
<path d="M697.77 1.91461L744.79 1.87463L722.67 126.825C720.44 139.405 715.67 150.815 708.98 161.265C700.51 174.505 688.02 183.615 672.81 188.095C651.75 194.295 629.32 194.625 608.23 189.115C579.71 181.675 572.32 155.875 576.14 129.055L598.49 1.81464L645.41 1.87463L625.13 116.325C623.19 127.935 619.47 146.675 634.32 150.825C644.14 153.575 655.31 153.195 663.93 147.095C669.79 142.945 673.89 135.685 675.24 128.155L697.77 1.92462V1.91461Z" fill="white"/>
<path d="M872.25 148.615L865.1 189.155L746.39 189.115L779.43 1.88461L826.36 1.86462L800.64 148.485L872.25 148.615Z" fill="white"/>
</svg>
