<svg width="275" height="168" viewBox="0 0 275 168" fill="none" xmlns="http://www.w3.org/2000/svg">
<path d="M0 166.272V1.30859L37.3962 29.5341V138.046L37.296 138.121L0 166.272ZM0.501125 2.31325V165.267L36.8951 137.797V29.7835L0.501125 2.31325Z" fill="black"/>
<path d="M9.07786 8.28516H8.57666V159.296H9.07786V8.28516Z" fill="black"/>
<path d="M16.4003 13.8105H15.8992V153.768H16.4003V13.8105Z" fill="black"/>
<path d="M22.7231 18.584H22.2219V148.997H22.7231V18.584Z" fill="black"/>
<path d="M28.2389 22.7461H27.7378V144.833H28.2389V22.7461Z" fill="black"/>
<path d="M33.0927 26.4102H32.5916V141.17H33.0927V26.4102Z" fill="black"/>
<path d="M37.003 127.849L0.12915 150.668L0.393112 151.095L37.2669 128.276L37.003 127.849Z" fill="black"/>
<path d="M0.359331 136.184L0.141846 135.733L37.0368 118.012L37.2544 118.463L0.359331 136.184Z" fill="black"/>
<path d="M0.33126 121.29L0.169922 120.816L37.065 108.158L37.2263 108.631L0.33126 121.29Z" fill="black"/>
<path d="M0.300665 106.393L0.200439 105.903L37.0955 98.3086L37.1957 98.7987L0.300665 106.393Z" fill="black"/>
<path d="M37.1286 88.4617L0.233398 90.9922L0.267688 91.4921L37.1628 88.9617L37.1286 88.4617Z" fill="black"/>
<path d="M0.267693 76.088L0.233398 76.5879L37.1285 79.1191L37.1628 78.6192L0.267693 76.088Z" fill="black"/>
<path d="M37.0955 69.2722L0.200439 61.6776L0.300665 61.1875L37.1957 68.782L37.0955 69.2722Z" fill="black"/>
<path d="M37.065 59.4204L0.169922 46.7622L0.33126 46.2891L37.2263 58.9474L37.065 59.4204Z" fill="black"/>
<path d="M37.0368 49.5691L0.141846 31.8476L0.359331 31.3965L37.2544 49.118L37.0368 49.5691Z" fill="black"/>
<path d="M0.382486 16.5029L0.118896 16.9297L37.014 39.7143L37.2775 39.2875L0.382486 16.5029Z" fill="black"/>
<path d="M51.8103 166.38V1.20117L52.2393 1.6351L79.7866 29.5563V138.024L79.7145 138.098L51.8103 166.38ZM52.3114 2.4211V165.16L79.2855 137.819V29.7617L52.3114 2.4211Z" fill="black"/>
<path d="M58.6989 8.28516H58.1978V159.296H58.6989V8.28516Z" fill="black"/>
<path d="M64.1515 13.8105H63.6504V153.768H64.1515V13.8105Z" fill="black"/>
<path d="M68.8595 18.584H68.3584V148.997H68.8595V18.584Z" fill="black"/>
<path d="M72.9677 22.7461H72.4666V144.833H72.9677V22.7461Z" fill="black"/>
<path d="M76.5817 26.4102H76.0806V141.17H76.5817V26.4102Z" fill="black"/>
<path d="M52.2212 151.056L51.9009 150.671L79.376 127.887L79.6962 128.272L52.2212 151.056Z" fill="black"/>
<path d="M79.399 118.024L51.9268 135.75L52.1981 136.171L79.6703 118.444L79.399 118.024Z" fill="black"/>
<path d="M52.166 121.281L51.9558 120.826L79.431 108.168L79.6412 108.623L52.166 121.281Z" fill="black"/>
<path d="M52.1281 106.39L51.9937 105.907L79.4688 98.3125L79.6033 98.7952L52.1281 106.39Z" fill="black"/>
<path d="M79.5115 88.4482L52.0388 91.0059L52.0852 91.5046L79.5579 88.9469L79.5115 88.4482Z" fill="black"/>
<path d="M52.0838 76.0891L52.0378 76.5879L79.5129 79.1191L79.5589 78.6203L52.0838 76.0891Z" fill="black"/>
<path d="M79.4688 69.2687L51.9937 61.6743L52.1281 61.1914L79.6033 68.7859L79.4688 69.2687Z" fill="black"/>
<path d="M79.431 59.4117L51.9558 46.7534L52.166 46.2988L79.6412 58.957L79.431 59.4117Z" fill="black"/>
<path d="M52.1965 31.4115L51.9253 31.832L79.4005 49.5535L79.6717 49.133L52.1965 31.4115Z" fill="black"/>
<path d="M79.376 39.6931L51.9009 16.9084L52.2212 16.5234L79.6962 39.3082L79.376 39.6931Z" fill="black"/>
<path d="M93.0234 166.664V0.914062L110.402 29.5883V137.99L110.365 138.05L93.0234 166.664ZM93.5246 2.70597V164.873L109.9 137.851V29.7276L93.5246 2.70597Z" fill="black"/>
<path d="M97.4478 8.2832H96.9468V159.294H97.4478V8.2832Z" fill="black"/>
<path d="M100.797 13.8105H100.296V153.768H100.797V13.8105Z" fill="black"/>
<path d="M103.69 18.582H103.189V148.995H103.69V18.582Z" fill="black"/>
<path d="M106.213 22.7461H105.712V144.833H106.213V22.7461Z" fill="black"/>
<path d="M108.434 26.4082H107.933V141.168H108.434V26.4082Z" fill="black"/>
<path d="M109.939 127.921L93.082 150.721L93.4854 151.019L110.343 128.22L109.939 127.921Z" fill="black"/>
<path d="M109.971 118.066L93.0923 135.785L93.4541 136.13L110.333 118.41L109.971 118.066Z" fill="black"/>
<path d="M110 108.193L93.1245 120.854L93.4252 121.254L110.301 108.594L110 108.193Z" fill="black"/>
<path d="M110.05 98.3287L93.1694 105.914L93.3748 106.371L110.256 98.7858L110.05 98.3287Z" fill="black"/>
<path d="M93.3106 91.4892L93.2373 90.9942L110.114 88.4629L110.188 88.9579L93.3106 91.4892Z" fill="black"/>
<path d="M110.114 79.1162L93.2373 76.5848L93.3106 76.0898L110.188 78.6212L110.114 79.1162Z" fill="black"/>
<path d="M93.3768 61.2031L93.1711 61.6602L110.048 69.2547L110.254 68.7976L93.3768 61.2031Z" fill="black"/>
<path d="M93.4243 46.3256L93.1235 46.7266L110 59.3848L110.301 58.9838L93.4243 46.3256Z" fill="black"/>
<path d="M93.4549 31.4484L93.093 31.793L109.97 49.5145L110.332 49.1699L93.4549 31.4484Z" fill="black"/>
<path d="M93.4756 16.5647L93.0725 16.8633L109.949 39.648L110.353 39.3494L93.4756 16.5647Z" fill="black"/>
<path d="M122.854 167.58V0L131.204 29.6586L131.195 137.989L122.854 167.58ZM123.355 3.62148V163.958L130.703 137.886V29.6935L123.355 3.62148Z" fill="black"/>
<path d="M125.18 8.28516H124.679V159.296H125.18V8.28516Z" fill="black"/>
<path d="M126.737 13.8105H126.236V153.768H126.737V13.8105Z" fill="black"/>
<path d="M128.083 18.584H127.582V148.997H128.083V18.584Z" fill="black"/>
<path d="M129.256 22.7461H128.755V144.833H129.256V22.7461Z" fill="black"/>
<path d="M130.289 26.4102H129.788V141.17H130.289V26.4102Z" fill="black"/>
<path d="M123.342 150.945L122.867 150.783L130.717 127.998L131.191 128.161L123.342 150.945Z" fill="black"/>
<path d="M130.732 118.138L122.869 135.854L123.326 136.056L131.189 118.341L130.732 118.138Z" fill="black"/>
<path d="M130.745 108.265L122.888 120.918L123.313 121.182L131.17 108.529L130.745 108.265Z" fill="black"/>
<path d="M130.784 98.3771L122.928 105.965L123.275 106.324L131.131 98.7365L130.784 98.3771Z" fill="black"/>
<path d="M130.876 88.4715L123.028 91.0059L123.182 91.4825L131.03 88.9482L130.876 88.4715Z" fill="black"/>
<path d="M123.181 76.0994L123.028 76.5762L130.877 79.1075L131.031 78.6307L123.181 76.0994Z" fill="black"/>
<path d="M123.278 61.2523L122.931 61.6113L130.78 69.2059L131.128 68.8468L123.278 61.2523Z" fill="black"/>
<path d="M123.317 46.3944L122.892 46.6582L130.741 59.3165L131.167 59.0526L123.317 46.3944Z" fill="black"/>
<path d="M123.333 31.5201L122.876 31.7227L130.725 49.4441L131.183 49.2416L123.333 31.5201Z" fill="black"/>
<path d="M130.717 39.5821L122.867 16.7973L123.342 16.6348L131.191 39.4195L130.717 39.5821Z" fill="black"/>
<path d="M274.6 166.272L237.203 138.046V29.5341L237.304 29.459L274.6 1.30859V166.272ZM237.704 137.797L274.098 165.267V2.31325L237.704 29.7835V137.797Z" fill="black"/>
<path d="M266.022 8.28516H265.521V159.296H266.022V8.28516Z" fill="black"/>
<path d="M258.701 13.8105H258.199V153.768H258.701V13.8105Z" fill="black"/>
<path d="M252.378 18.584H251.877V148.997H252.378V18.584Z" fill="black"/>
<path d="M246.862 22.7461H246.361V144.833H246.862V22.7461Z" fill="black"/>
<path d="M242.008 26.4102H241.507V141.17H242.008V26.4102Z" fill="black"/>
<path d="M274.204 16.4818L237.335 39.3086L237.599 39.7352L274.468 16.9084L274.204 16.4818Z" fill="black"/>
<path d="M237.563 49.5691L237.345 49.118L274.24 31.3965L274.458 31.8476L237.563 49.5691Z" fill="black"/>
<path d="M237.535 59.4204L237.373 58.9474L274.268 46.2891L274.43 46.7622L237.535 59.4204Z" fill="black"/>
<path d="M237.504 69.2722L237.404 68.782L274.299 61.1875L274.399 61.6776L237.504 69.2722Z" fill="black"/>
<path d="M274.332 76.0878L237.437 78.6172L237.471 79.1171L274.366 76.5877L274.332 76.0878Z" fill="black"/>
<path d="M237.471 88.461L237.437 88.9609L274.332 91.4923L274.366 90.9923L237.471 88.461Z" fill="black"/>
<path d="M274.299 106.393L237.404 98.7987L237.504 98.3086L274.399 105.903L274.299 106.393Z" fill="black"/>
<path d="M274.268 121.29L237.373 108.631L237.535 108.158L274.43 120.816L274.268 121.29Z" fill="black"/>
<path d="M274.24 136.184L237.345 118.463L237.563 118.012L274.458 135.733L274.24 136.184Z" fill="black"/>
<path d="M237.586 127.866L237.322 128.293L274.217 151.078L274.481 150.651L237.586 127.866Z" fill="black"/>
<path d="M222.789 166.38L222.36 165.946L194.813 138.024V29.5563L194.885 29.483L222.789 1.20117V166.38ZM195.314 137.819L222.288 165.16V2.4211L195.314 29.7617V137.819Z" fill="black"/>
<path d="M216.402 8.28516H215.901V159.296H216.402V8.28516Z" fill="black"/>
<path d="M210.949 13.8105H210.448V153.768H210.949V13.8105Z" fill="black"/>
<path d="M206.241 18.584H205.74V148.997H206.241V18.584Z" fill="black"/>
<path d="M202.133 22.7461H201.632V144.833H202.133V22.7461Z" fill="black"/>
<path d="M198.519 26.4102H198.018V141.17H198.519V26.4102Z" fill="black"/>
<path d="M195.224 39.6931L194.904 39.3082L222.379 16.5234L222.699 16.9084L195.224 39.6931Z" fill="black"/>
<path d="M222.401 31.4077L194.93 49.1348L195.201 49.5553L222.673 31.8282L222.401 31.4077Z" fill="black"/>
<path d="M195.169 59.4117L194.959 58.957L222.434 46.2988L222.644 46.7534L195.169 59.4117Z" fill="black"/>
<path d="M195.131 69.2687L194.996 68.7859L222.472 61.1914L222.606 61.6743L195.131 69.2687Z" fill="black"/>
<path d="M222.514 76.0757L195.042 78.6328L195.088 79.1315L222.561 76.5744L222.514 76.0757Z" fill="black"/>
<path d="M195.087 88.4622L195.041 88.9609L222.516 91.4923L222.562 90.9936L195.087 88.4622Z" fill="black"/>
<path d="M222.472 106.39L194.996 98.7952L195.131 98.3125L222.606 105.907L222.472 106.39Z" fill="black"/>
<path d="M222.434 121.281L194.959 108.623L195.169 108.168L222.644 120.826L222.434 121.281Z" fill="black"/>
<path d="M195.199 118.027L194.928 118.447L222.403 136.169L222.674 135.748L195.199 118.027Z" fill="black"/>
<path d="M222.379 151.056L194.904 128.272L195.224 127.887L222.699 150.671L222.379 151.056Z" fill="black"/>
<path d="M181.576 166.664L164.197 137.99V29.5883L164.233 29.5283L181.576 0.914062V166.664ZM164.698 137.851L181.075 164.873V2.70597L164.698 29.7276V137.851Z" fill="black"/>
<path d="M177.653 8.2832H177.151V159.294H177.653V8.2832Z" fill="black"/>
<path d="M174.304 13.8105H173.802V153.768H174.304V13.8105Z" fill="black"/>
<path d="M171.411 18.582H170.909V148.995H171.411V18.582Z" fill="black"/>
<path d="M168.888 22.7461H168.387V144.833H168.888V22.7461Z" fill="black"/>
<path d="M166.667 26.4082H166.166V141.168H166.667V26.4082Z" fill="black"/>
<path d="M181.113 16.5575L164.256 39.3574L164.659 39.6556L181.517 16.8557L181.113 16.5575Z" fill="black"/>
<path d="M181.145 31.4483L164.266 49.168L164.627 49.5126L181.507 31.7929L181.145 31.4483Z" fill="black"/>
<path d="M181.174 46.3234L164.298 58.9844L164.599 59.3853L181.475 46.7243L181.174 46.3234Z" fill="black"/>
<path d="M181.225 61.2069L164.342 68.791L164.548 69.2481L181.431 61.664L181.225 61.2069Z" fill="black"/>
<path d="M164.484 79.1162L164.411 78.6212L181.289 76.0898L181.362 76.5848L164.484 79.1162Z" fill="black"/>
<path d="M181.289 91.4892L164.411 88.9579L164.484 88.4629L181.362 90.9942L181.289 91.4892Z" fill="black"/>
<path d="M164.55 98.3243L164.344 98.7812L181.223 106.376L181.428 105.919L164.55 98.3243Z" fill="black"/>
<path d="M164.598 108.193L164.297 108.594L181.175 121.252L181.476 120.851L164.598 108.193Z" fill="black"/>
<path d="M164.628 118.064L164.266 118.408L181.145 136.13L181.506 135.785L164.628 118.064Z" fill="black"/>
<path d="M164.649 127.93L164.246 128.229L181.124 151.013L181.527 150.715L164.649 127.93Z" fill="black"/>
<path d="M151.746 167.58L143.394 137.921L143.404 29.5909L151.746 0V167.58ZM143.895 137.886L151.245 163.958V3.62148L143.895 29.6935V137.886Z" fill="black"/>
<path d="M149.921 8.28516H149.42V159.296H149.921V8.28516Z" fill="black"/>
<path d="M148.363 13.8105H147.861V153.768H148.363V13.8105Z" fill="black"/>
<path d="M147.018 18.584H146.517V148.997H147.018V18.584Z" fill="black"/>
<path d="M145.845 22.7461H145.344V144.833H145.845V22.7461Z" fill="black"/>
<path d="M144.812 26.4102H144.311V141.17H144.812V26.4102Z" fill="black"/>
<path d="M143.882 39.5821L143.407 39.4195L151.258 16.6348L151.732 16.7973L143.882 39.5821Z" fill="black"/>
<path d="M151.274 31.5236L143.408 49.2383L143.866 49.4413L151.731 31.7265L151.274 31.5236Z" fill="black"/>
<path d="M151.284 46.396L143.43 59.0527L143.856 59.3167L151.709 46.66L151.284 46.396Z" fill="black"/>
<path d="M151.325 61.2554L143.468 68.8438L143.815 69.2031L151.672 61.6148L151.325 61.2554Z" fill="black"/>
<path d="M151.417 76.0965L143.568 78.6328L143.722 79.1095L151.571 76.5732L151.417 76.0965Z" fill="black"/>
<path d="M143.721 88.4725L143.568 88.9492L151.418 91.4805L151.572 91.0038L143.721 88.4725Z" fill="black"/>
<path d="M143.818 98.3733L143.471 98.7324L151.321 106.327L151.669 105.968L143.818 98.3733Z" fill="black"/>
<path d="M143.857 108.264L143.432 108.527L151.282 121.186L151.708 120.922L143.857 108.264Z" fill="black"/>
<path d="M143.873 118.135L143.416 118.338L151.266 136.059L151.724 135.857L143.873 118.135Z" fill="black"/>
<path d="M151.258 150.945L143.407 128.161L143.882 127.998L151.732 150.783L151.258 150.945Z" fill="black"/>
</svg>
