<svg width="273" height="273" viewBox="0 0 273 273" fill="none" xmlns="http://www.w3.org/2000/svg">
<path d="M16.7927 13.2832C41.0156 -9.37717 88.3681 -2.07811 137.366 27.8242C187.387 -1.61745 235.357 -7.97823 258.947 15.9902L259.716 16.792C282.376 41.0149 275.076 88.3679 245.174 137.366C274.616 187.387 280.977 235.358 257.008 258.947C233.038 282.536 185.176 275.41 135.632 245.174C85.6112 274.615 37.6419 280.976 14.0525 257.008C-9.53668 233.039 -2.41195 185.176 27.824 135.632C-1.61724 85.6113 -7.97769 37.6411 15.991 14.0518L16.7927 13.2832ZM243.387 140.253C231.206 159.661 215.511 179.262 196.754 197.723C177.996 216.183 158.146 231.564 138.546 243.434C152.51 251.841 166.297 258.369 179.391 262.851C211.941 273.99 239.243 272.221 254.903 256.809C270.563 241.396 272.769 214.126 262.15 181.402C257.879 168.238 251.571 154.349 243.387 140.253ZM29.5642 138.546C21.157 152.51 14.6293 166.298 10.1482 179.392C-0.990863 211.941 0.778202 239.243 16.1902 254.903C31.6025 270.564 58.8731 272.768 91.5964 262.149C104.76 257.878 118.65 251.57 132.746 243.387C113.338 231.206 93.7365 215.511 75.2761 196.754C56.8152 177.996 41.434 158.147 29.5642 138.546ZM137.338 31.3291C117.532 43.1676 97.3903 58.6746 78.3494 77.4141C59.3081 96.1538 43.4819 116.046 31.3289 135.66C43.1674 155.466 58.675 175.608 77.4148 194.649C96.1543 213.69 116.046 229.516 135.66 241.669C155.466 229.831 175.608 214.325 194.649 195.585C213.69 176.845 229.517 156.953 241.67 137.339C229.831 117.533 214.324 97.3908 195.585 78.3496C176.845 59.3082 156.952 43.4823 137.338 31.3291ZM256.809 18.0947C241.397 2.43461 214.126 0.230367 181.403 10.8486C168.239 15.1201 154.35 21.4271 140.254 29.6104C159.662 41.7914 179.263 57.4884 197.723 76.2461C216.183 95.0032 231.564 114.851 243.433 134.451C251.841 120.488 258.37 106.701 262.851 93.6074C273.991 61.0578 272.222 33.755 256.809 18.0947ZM93.6072 10.1484C61.0576 -0.99075 33.7557 0.778206 18.0955 16.1904C2.43536 31.6027 0.231041 58.8735 10.8494 91.5967C15.1209 104.76 21.4278 118.65 29.6111 132.746C41.792 113.338 57.4874 93.7369 76.2449 75.2764C95.0024 56.8158 114.851 41.4342 134.452 29.5645C120.488 21.1573 106.701 14.6295 93.6072 10.1484Z" fill="black"/>
</svg>
