<svg width="315" height="314" viewBox="0 0 315 314" fill="none" xmlns="http://www.w3.org/2000/svg">
<path d="M152.574 5.52832C153.141 0.157919 160.959 0.15795 161.526 5.52832L169.68 82.8086C170.4 89.6372 179.157 91.9874 183.2 86.4375L228.99 23.5869C232.17 19.2217 238.937 23.1371 236.737 28.0693L205.095 98.9961C202.295 105.271 208.707 111.695 214.988 108.907L286.067 77.3496C291.004 75.1575 294.908 81.9343 290.534 85.1055L227.652 130.698C222.084 134.735 224.432 143.511 231.271 144.229L308.57 152.347C313.943 152.911 313.943 160.734 308.57 161.298L231.271 169.415C224.432 170.133 222.084 178.91 227.652 182.946L290.534 228.539C294.908 231.71 291.004 238.487 286.067 236.295L214.988 204.737C208.707 201.949 202.295 208.373 205.095 214.648L236.737 285.575C238.937 290.507 232.17 294.423 228.99 290.058L183.2 227.207C179.157 221.657 170.4 224.007 169.68 230.836L161.526 308.116C160.959 313.487 153.141 313.487 152.574 308.116L144.42 230.836C143.7 224.007 134.943 221.657 130.9 227.207L85.1106 290.058C81.9304 294.423 75.1635 290.507 77.3635 285.575L109.005 214.648C111.805 208.373 105.393 201.949 99.1125 204.737L28.0334 236.295C23.096 238.487 19.1924 231.71 23.5657 228.539L86.4485 182.946C92.0158 178.91 89.6684 170.133 82.8293 169.415L5.53052 161.298C0.157149 160.734 0.157149 152.911 5.53052 152.347L82.8293 144.229C89.6684 143.511 92.0158 134.735 86.4485 130.698L23.5657 85.1055C19.1924 81.9344 23.096 75.1575 28.0334 77.3496L99.1125 108.907C105.393 111.695 111.805 105.271 109.005 98.9961L77.3635 28.0693C75.1636 23.1371 81.9305 19.2218 85.1106 23.5869L130.9 86.4375C134.943 91.9874 143.7 89.6372 144.42 82.8086L152.574 5.52832Z" stroke="black" stroke-width="3"/>
</svg>
